{"title":"To Wong Foo Thanks for Everything, Julie Newmar 1995.DVDrip.H263","uid":7435217,"size":1140412959,"categoryP":"video","categoryS":"movies","magnet":"?xt=urn:btih:e435a694d66f05d67ceeb0818ddecd3613c57dd1&amp;dn=To+Wong+Foo+Thanks+for+Everything%2C+Julie+Newmar+1995.DVDrip.H263&amp;tr=udp%3A%2F%2Ftracker.openbittorrent.com%3A80&amp;tr=udp%3A%2F%2Fopen.demonii.com%3A1337&amp;tr=udp%3A%2F%2Ftracker.coppersurfer.tk%3A6969&amp;tr=udp%3A%2F%2Fexodus.desync.com%3A6969","seeders":19,"leechers":0,"uploader":"zingooo","files":-1,"time":1342058858,"description":"To Wong Foo Thanks for Everything, Julie Newmar 1995.DVDrip.H263 BSBT-1.mp4\n\nFormat : MPEG-4\n\nFormat profile : Base Media / Version 2\n\nCodec ID : mp42\n\nFile size : 1.06 GiB\n\nDuration : 1h 43mn\n\nOverall bit rate : 1 466 Kbps\n\n\n\n\n\nVideo\n\nID : 1\n\nFormat : AVC\n\nFormat/Info : Advanced Video Codec\n\nFormat profile : &lt;a class=&quot;__cf_email__&quot; href=&quot;/cdn-cgi/l/email-protection&quot; data-cfemail=&quot;3b765a52557b7708150b&quot;&gt;[email&amp;#160;protected]&lt;/a&gt;&lt;script cf-hash='f9e31' type=&quot;text/javascript&quot;&gt;\n/* &lt;![CDATA[ */!function(){try{var t=&quot;currentScript&quot;in document?document.currentScript:function(){for(var t=document.getElementsByTagName(&quot;script&quot;),e=t.length;e--;)if(t[e].getAttribute(&quot;cf-hash&quot;))return t[e]}();if(t&amp;&amp;t.previousSibling){var e,r,n,i,c=t.previousSibling,a=c.getAttribute(&quot;data-cfemail&quot;);if(a){for(e=&quot;&quot;,r=parseInt(a.substr(0,2),16),n=2;a.length-n;n+=2)i=parseInt(a.substr(n,2),16)^r,e+=String.fromCharCode(i);e=document.createTextNode(e),c.parentNode.replaceChild(e,c)}}}catch(u){}}();/* ]]&gt; */&lt;/script&gt;\n\nFormat settings, CABAC : Yes\n\nFormat settings, ReFrames : 4 frames\n\nFormat settings, GOP : M=3, N=32\n\nCodec ID : avc1\n\nCodec ID/Info : Advanced Video Coding\n\nDuration : 1h 43mn\n\nBit rate mode : Variable\n\nBit rate : 1 301 Kbps\n\nWidth : 688 pixels\n\nHeight : 368 pixels\n\nDisplay aspect ratio : 1.870\n\nFrame rate mode : Constant\n\nFrame rate : 25.000 fps\n\nColor space : YUV\n\nChroma subsampling : 4:2:0\n\nBit depth : 8 bits\n\nScan type : Progressive\n\nBits/(Pixel*Frame) : 0.206\n\nStream size : 966 MiB (89%)\n\nWriting library : x264 core 112\n\n\n\n\n\nAudio\n\nID : 2\n\nFormat : AAC\n\nFormat/Info : Advanced Audio Codec\n\nFormat profile : LC\n\nCodec ID : 40\n\nDuration : 1h 43mn\n\nBit rate mode : Variable\n\nBit rate : 160 Kbps\n\nMaximum bit rate : 296 Kbps\n\nChannel(s) : 2 channels\n\nChannel positions : Front: L R\n\nSampling rate : 48.0 KHz\n\nCompression mode : Lossy\n\nStream size : 119 MiB (11%)\n\n\n\n\n\nIMDB:http://www.imdb.com/title/tt0114682/\n\nCast\n\nCast overview, first billed only:\n\nWesley Snipes Wesley Snipes ... \n\nNoxeema\n\nPatrick Swayze Patrick Swayze ... \n\nVida\n\nJohn Leguizamo John Leguizamo ... \n\nChi-Chi\n\nStockard Channing Stockard Channing ... \n\nCarol Ann\n\nBlythe Danner Blythe Danner ... \n\nBeatrice\n\nArliss Howard Arliss Howard ... \n\nVirgil\n\nJason London Jason London ... \n\nBobby Ray\n\nChris Penn Chris Penn ... \n\nSheriff Dollard\n\nMelinda Dillon Melinda Dillon ... \n\nMerna\n\nBeth Grant Beth Grant ... \n\nLoretta\n\nAlice Drummond Alice Drummond ... \n\nClara\n\nMarceline Hugot Marceline Hugot ... \n\nKatina\n\nJennifer Milmore Jennifer Milmore ... \n\nBobby Lee\n\nJamie Harrold Jamie Harrold ... \n\nBilly Budd\n\nMike Hodge Mike Hodge ... \n\nJimmy Joe \n\n\n\n\n\nstoryline \n\n\n\nAfter jointly winning a local drag queen pageant in New York City, Noxeema Jackson and Vida Boheme win the right and are given the round trip airfare to compete in the Drag Queen of America pageant in Hollywood, California. Noxeema sees herself as the next Dorothy Dandridge, who bucked the trend of most black American movie actresses of her time by never playing the slave house maid. Vida's style reflects her past of growing up in upper class suburban Pennsylvania. One of their fellow New York contestants, Chi-Chi Rodriguez, is a straight-talking but naive and inexperienced drag queen. Seeing that Chi-Chi needs some drag queen confidence (despite her bravada), Vida and a reluctant Noxeema decide to cash in their plane tickets and buy an older model Cadillac convertible and drive to Hollywood with Chi-Chi. Their drive takes them through much of the country where alternate lifestyles are less tolerated than they may be in New York or Los Angeles.\n\n\n\nDetails\n\nCountry:\n\nUSA\n\nLanguage:\n\nEnglish | French | Italian\n\nRelease Date:\n\n10 November 1995 (UK)\n\n\n\nThree drag queens travel cross-country until their car breaks down, leaving them stranded in a small town.\n\nDirector:\n\nBeeban Kidron\n\nWriter:\n\nDouglas Carter Beane\n\nStars:\n\nWesley Snipes, Patrick Swayze and John Leguizamo","torrent":{"xt":"urn:btih:e435a694d66f05d67ceeb0818ddecd3613c57dd1","amp;dn":"To+Wong+Foo+Thanks+for+Everything%2C+Julie+Newmar+1995.DVDrip.H263","amp;tr":["udp%3A%2F%2Ftracker.openbittorrent.com%3A80","udp%3A%2F%2Fopen.demonii.com%3A1337","udp%3A%2F%2Ftracker.coppersurfer.tk%3A6969","udp%3A%2F%2Fexodus.desync.com%3A6969"],"infoHash":"e435a694d66f05d67ceeb0818ddecd3613c57dd1","infoHashBuffer":{"type":"Buffer","data":[228,53,166,148,214,111,5,214,124,238,176,129,141,222,205,54,19,197,125,209]},"announce":[],"urlList":[]}}